<svg width="15" height="15" viewBox="0 0 15 15" fill="none" xmlns="http://www.w3.org/2000/svg">
<path d="M1 6.36426C0.447715 6.36426 0 6.81197 0 7.36426C0 7.91654 0.447715 8.36426 1 8.36426V7.36426V6.36426ZM14.7071 8.07136C15.0976 7.68084 15.0976 7.04768 14.7071 6.65715L8.34315 0.29319C7.95262 -0.0973343 7.31946 -0.0973343 6.92893 0.29319C6.53841 0.683714 6.53841 1.31688 6.92893 1.7074L12.5858 7.36426L6.92893 13.0211C6.53841 13.4116 6.53841 14.0448 6.92893 14.4353C7.31946 14.8258 7.95262 14.8258 8.34315 14.4353L14.7071 8.07136ZM1 7.36426V8.36426H14V7.36426V6.36426H1V7.36426Z" fill="black"/>
</svg>
