<svg width="450" height="78" viewBox="0 0 450 78" fill="none" xmlns="http://www.w3.org/2000/svg">
<path d="M18.7658 32.9107C18.7658 35.8073 19.1972 38.2725 20.06 40.3062C20.9228 42.34 22.4019 44.0656 24.4973 45.4831C26.6544 46.839 29.6434 47.8559 33.4644 48.5338C37.3471 49.1501 42.2467 49.4582 48.1631 49.4582C53.0319 49.4582 57.8698 49.2117 62.6769 48.7187C67.484 48.2256 72.1062 47.6094 76.5436 46.8698C80.9809 46.1302 84.9868 45.4215 88.5613 44.7436L91.8893 60.3667C87.6369 61.3528 83.0455 62.2464 78.1151 63.0476C73.1847 63.7871 68.1311 64.3726 62.9542 64.804C57.7773 65.2971 52.6313 65.5436 47.516 65.5436C38.8879 65.5436 31.5539 64.8348 25.5142 63.4174C19.4745 61.9999 14.575 59.9353 10.8156 57.2236C7.05615 54.4502 4.31363 51.0298 2.588 46.9622C0.862371 42.8947 -0.000443463 38.2108 -0.000443463 32.9107C-0.000443463 27.6722 0.862371 23.0191 2.588 18.9516C4.31363 14.884 7.05615 11.4944 10.8156 8.78269C14.575 6.00935 19.4745 3.91394 25.5142 2.49646C31.5539 1.07898 38.8879 0.37024 47.516 0.37024C52.6313 0.37024 57.7773 0.585942 62.9542 1.01735C68.1311 1.44876 73.1847 2.06505 78.1151 2.86624C83.0455 3.66743 87.6369 4.56106 91.8893 5.54713L88.5613 21.1702C84.9868 20.4307 80.9809 19.7219 76.5436 19.044C72.1062 18.3045 67.484 17.6882 62.6769 17.1951C57.8698 16.7021 53.0319 16.4556 48.1631 16.4556C42.2467 16.4556 37.3471 16.7945 33.4644 17.4725C29.6434 18.0888 26.6544 19.0748 24.4973 20.4307C22.4019 21.7865 20.9228 23.5122 20.06 25.6076C19.1972 27.6414 18.7658 30.0757 18.7658 32.9107ZM147.192 65.636C135.174 65.636 125.344 64.4651 117.702 62.1231C110.06 59.7812 104.421 56.2067 100.785 51.3996C97.2104 46.5308 95.4232 40.3371 95.4232 32.8182C95.4232 25.2378 97.2104 19.044 100.785 14.2369C104.421 9.4298 110.06 5.85528 117.702 3.51335C125.344 1.17142 135.174 0.000461063 147.192 0.000461063C159.271 0.000461063 169.101 1.17142 176.682 3.51335C184.262 5.85528 189.871 9.4298 193.507 14.2369C197.143 19.044 198.961 25.2378 198.961 32.8182C198.961 40.3371 197.143 46.5308 193.507 51.3996C189.871 56.2067 184.262 59.7812 176.682 62.1231C169.101 64.4651 159.271 65.636 147.192 65.636ZM147.192 49.5507C153.478 49.5507 158.717 49.2425 162.908 48.6262C167.16 48.0099 170.519 47.0547 172.984 45.7605C175.449 44.4046 177.206 42.679 178.253 40.5836C179.301 38.4265 179.825 35.8381 179.825 32.8182C179.825 29.7368 179.301 27.1483 178.253 25.0529C177.206 22.8959 175.449 21.1702 172.984 19.876C170.519 18.5202 167.16 17.5649 162.908 17.0102C158.717 16.3939 153.478 16.0858 147.192 16.0858C138.749 16.0858 132.124 16.6405 127.316 17.7498C122.571 18.7975 119.181 20.5539 117.148 23.0191C115.175 25.4843 114.189 28.7507 114.189 32.8182C114.189 36.8858 115.175 40.1522 117.148 42.6174C119.181 45.0825 122.571 46.8698 127.316 47.9791C132.124 49.0268 138.749 49.5507 147.192 49.5507ZM268.523 64.3418H207.14V1.29468H268.523C273.947 1.29468 278.877 1.81854 283.314 2.86624C287.752 3.91395 291.573 5.63957 294.777 8.04313C297.982 10.3851 300.417 13.5898 302.081 17.6574C303.806 21.6633 304.669 26.6861 304.669 32.7258C304.669 38.8888 303.806 44.004 302.081 48.0716C300.355 52.1391 297.89 55.3747 294.685 57.7782C291.48 60.1818 287.659 61.8766 283.222 62.8627C278.846 63.8488 273.947 64.3418 268.523 64.3418ZM225.906 17.38V48.2565H266.767C271.142 48.2565 274.686 47.8251 277.398 46.9622C280.11 46.0994 282.082 44.5587 283.314 42.34C284.609 40.0597 285.256 36.855 285.256 32.7258C285.256 28.5966 284.609 25.4535 283.314 23.2965C282.082 21.0778 280.11 19.5371 277.398 18.6742C274.686 17.8114 271.142 17.38 266.767 17.38H225.906ZM396.89 64.3418H312.765V1.29468H396.89V15.9934H331.531V26.4396H395.133V38.5498H331.531V49.6431H396.89V64.3418ZM449.232 17.1951V35.684H431.113V17.1951H449.232ZM429.634 77.0991L430.835 68.5018C431.637 68.5634 432.376 68.6251 433.054 68.6867C433.794 68.8099 434.472 68.8716 435.088 68.8716C436.69 68.8716 437.738 68.6559 438.231 68.2245C438.786 67.8547 439.063 67.0843 439.063 65.9134V64.3418H431.113V45.8529H449.232V66.3756C449.232 69.9501 448.153 72.7542 445.996 74.788C443.839 76.8218 440.48 77.8387 435.92 77.8387C433.701 77.8387 431.606 77.5922 429.634 77.0991Z" fill="white"/>
</svg>
